<svg width="18" height="18" viewBox="0 0 18 18" fill="none" xmlns="http://www.w3.org/2000/svg">
<path d="M14.7269 3.767C13.6434 3.26824 12.4989 2.9142 11.3229 2.714C11.1629 3.004 11.0176 3.301 10.8869 3.605C9.63477 3.41513 8.36112 3.41513 7.10895 3.605C6.97841 3.30131 6.8329 3.00428 6.67295 2.715C5.49616 2.91671 4.35079 3.27138 3.26595 3.77C1.11195 6.974 0.527947 10.099 0.819947 13.179C2.08057 14.1154 3.49281 14.8281 4.99495 15.286C5.33361 14.828 5.63161 14.3447 5.88895 13.836C5.40094 13.6522 4.92984 13.4264 4.48095 13.161C4.59961 13.0743 4.71461 12.9873 4.82595 12.9C6.13082 13.5174 7.5564 13.8376 8.99995 13.8376C10.4435 13.8376 11.8691 13.5174 13.1739 12.9C13.2873 12.9933 13.4023 13.08 13.5189 13.16C13.0676 13.4273 12.5976 13.6533 12.1089 13.838C12.3656 14.346 12.6633 14.8287 13.0019 15.286C14.5058 14.8306 15.9194 14.1181 17.1799 13.18C17.5229 9.608 16.5949 6.512 14.7269 3.767ZM6.25995 11.285C5.44595 11.285 4.77395 10.542 4.77395 9.629C4.77395 8.716 5.42295 7.967 6.25695 7.967C7.09095 7.967 7.75895 8.716 7.74495 9.629C7.73095 10.542 7.08895 11.285 6.25995 11.285ZM11.7419 11.285C10.9269 11.285 10.2569 10.542 10.2569 9.629C10.2569 8.716 10.9069 7.967 11.7419 7.967C12.5769 7.967 13.2399 8.716 13.2249 9.629C13.2099 10.542 12.5709 11.285 11.7419 11.285Z" fill="#9CA3AF"/>
</svg>
