<svg width="18" height="18" viewBox="0 0 18 18" fill="none" xmlns="http://www.w3.org/2000/svg">
<path d="M9 1.463C13.144 1.463 16.5 4.819 16.5 8.963C16.5 10.5347 16.0068 12.0667 15.0901 13.3433C14.1734 14.6199 12.8792 15.5767 11.39 16.079C11.016 16.154 10.875 15.919 10.875 15.722C10.875 15.469 10.885 14.663 10.885 13.66C10.885 12.957 10.65 12.507 10.378 12.272C12.047 12.085 13.8 11.447 13.8 8.569C13.8 7.744 13.51 7.079 13.031 6.554C13.106 6.366 13.369 5.597 12.956 4.566C12.956 4.566 12.328 4.36 10.894 5.335C10.2833 5.1662 9.65257 5.08109 9.019 5.082C8.38543 5.08109 7.75467 5.1662 7.144 5.335C5.709 4.369 5.081 4.566 5.081 4.566C4.669 5.597 4.931 6.366 5.006 6.554C4.50192 7.10292 4.2268 7.82381 4.237 8.569C4.237 11.438 5.981 12.085 7.65 12.272C7.434 12.46 7.237 12.788 7.172 13.275C6.741 13.472 5.662 13.791 4.988 12.657C4.847 12.432 4.425 11.879 3.834 11.888C3.206 11.898 3.581 12.244 3.844 12.385C4.162 12.563 4.528 13.229 4.612 13.445C4.762 13.866 5.25 14.672 7.134 14.325C7.134 14.954 7.144 15.545 7.144 15.722C7.144 15.919 7.004 16.144 6.628 16.079C5.13457 15.5811 3.83567 14.6259 2.91531 13.3488C1.99495 12.0716 1.4998 10.5372 1.5 8.963C1.5 4.819 4.856 1.463 9 1.463Z" fill="#9CA3AF"/>
</svg>
